<svg width="100" height="100" viewBox="0 0 100 100" fill="none" xmlns="http://www.w3.org/2000/svg">
<g style="mix-blend-mode:multiply">
<path fill-rule="evenodd" clip-rule="evenodd" d="M38.984 41.016L46.152 37.88L50.76 29.112H57.032L54.92 38.648H64.264L63.304 45.048H53.384L49.928 59.576L50.12 59.96L59.656 57.272L60.616 58.104C58.184 62.968 51.848 67.96 47.816 67.96C45.96 67.96 40.392 64.952 40.52 64.184L43.976 45.624L38.344 44.472L38.984 41.016ZM50 100C77.6142 100 100 77.6142 100 50C100 22.3858 77.6142 0 50 0C22.3858 0 0 22.3858 0 50C0 77.6142 22.3858 100 50 100Z" fill="#129681"/>
</g>
</svg>
