<svg id="de13c1a6-3ee5-412d-acc7-02fe7bca32d3" data-name="Layer 1" xmlns="http://www.w3.org/2000/svg" xmlns:xlink="http://www.w3.org/1999/xlink" viewBox="0 0 1000 1000"><defs><style>.\37 0f2ae6b-d7c6-48bb-a0cc-12dda2561906{fill:url(#b75a81ee-c87d-4299-8c9a-c6a6c2d68206);}.fa896b9c-da93-44ec-8f4a-ed4e8dc4d907{fill:#fff;}</style><linearGradient id="b75a81ee-c87d-4299-8c9a-c6a6c2d68206" x1="-16.71" y1="131.51" x2="761.22" y2="909.44" gradientUnits="userSpaceOnUse"><stop offset="0" stop-color="#00aeba"/><stop offset="1" stop-color="#006ca0"/></linearGradient></defs><title>forhire</title><path class="70f2ae6b-d7c6-48bb-a0cc-12dda2561906" d="M225,987l-26-3c-9-2-23-14-30-20s-19-18-22-25-3-8,4-71c2-23,6-51,9-82l-7-3-14-14-11-11c-6-4-19-17-8-44,4-9,9-18,12-22h0c6-9,15-11,26-13l15-3,10-79c-6,2-14,3-24,3l-26-3a49,49,0,0,1-21-10c-26-22-30-31-32-36h0c-1-5-3-9,4-75,3-27,7-60,11-97-9-8-24-22-29-29s-8-32,1-66h0c4-14,18-18,28-20l15-3,9-66-34,2c-13,0-21-2-28-6s-25-24-26-26h0c-4-5-12-13-12-28s2-15,5-25S38,81,41,75h0c5-10,16-12,30-16l40-7L235,36c86-10,193-20,236-20,14,0,23,2,30,5s20,17,32,32,8,21,3,37-17,33-30,40-10,5-93,20L263,175c-2,19-5,42-9,68h18q10,1,16,6a143,143,0,0,1,19-29c20-23,45-37,70-37,9,0,17,3,26,10s40,36,65,61l2-16c5-36,9-42,13-47s18-12,34-12,44,3,56,13a24,24,0,0,1,6,8l10-16c6-9,14-18,26-20h6c20,0,56,17,65,24s20,20,26,26,9,17,8,30-7,38-12,53c-10,34-16,42-25,47a30,30,0,0,1-14,3c-12,0-25-6-30-9a64,64,0,0,1-16-13c-15,34-29,72-38,99h0l-10,26c-2,7-5,15-14,20s-16,5-29,5l-26-3a47,47,0,0,1-18-8c-8-7-22-20-31-31l-3-5c-25,33-56,52-89,52h-5c-35-13-65-40-80-74-6-13-10-29-12-46l-35,8-13,85,20-2c13,0,44,3,56,13l15,14,10,11c10,8,9,19,8,37s-3,27-5,47-7,53-11,86h1c5-38,9-72,13-97s5-29,6-38,5-22,9-26,18-12,34-12,44,3,56,13l15,15,10,10c10,8,9,19,8,32s-2,21-4,36v10l3-4c5-5,11-9,19-10a30,30,0,0,1-10-13c-3-8-5-21-5-33s4-31,12-40,18-12,34-12,44,3,56,13l15,15,10,11c4,3,9,10,9,21l18-2c13,0,44,3,56,13a26,26,0,0,1,6,7l10-16c6-9,14-18,26-20h6c20,0,56,17,65,24h0a132,132,0,0,1,11-19c18-26,42-40,71-40a36,36,0,0,1,18,5c2,1,38,22,61,45,6,6,21,24,23,31,5,25-1,52-19,77a148,148,0,0,1-26,27l20,20a25,25,0,0,1,7,17c0,20-19,43-25,49s-31,31-53,31-63-30-78-47c-5-6-13-17-18-37h-7c-12,0-25-6-30-9a64,64,0,0,1-16-13c-15,34-29,72-38,99h0l-10,26c-2,7-5,15-14,20s-16,5-29,5l-26-3c-9-2-23-14-30-20l-15-15c-3,15-5,27-7,37-5,21-8,31-18,36s-16,5-29,5l-26-3c-9-2-23-14-30-20s-19-18-22-25-3-8-1-45v-2c-5,32-10,62-14,86s-6,35-8,46-6,27-16,33-16,5-29,5l-26-3c-9-2-23-14-30-20s-19-18-22-25-3-8,3-68c2-18,4-40,7-64h-4c-7,49-15,95-20,128-3,20-6,36-9,47s-6,28-16,33S238,987,225,987ZM577,618h0Z"/><path class="fa896b9c-da93-44ec-8f4a-ed4e8dc4d907" d="M471,23c12,0,21,1,27,5s18,15,29,30,5,19,2,31-15,29-27,36-8,5-91,19L257,169c-3,22-6,50-11,82h26c3,0,14,2,17,12v4a141,141,0,0,1,23-40c18-22,42-34,65-34,8,0,16,4,22,9s49,44,75,71l4-30c5-34,8-39,12-43s15-9,29-9,43,4,52,11,8,18,10,19a302,302,0,0,1,17-28c6-8,12-16,21-17h5c18,0,52,16,60,22l25,25c7,8,7,18,6,24s-7,37-11,52c-10,34-16,39-21,42l-10,2c-11,0-22-6-26-8s-17-11-20-21v-2c-17,37-33,81-44,112l-10,27c-2,7-4,13-10,16s-17,4-26,4l-24-2a40,40,0,0,1-16-7c-7-6-21-19-29-30l-2-4c-1-2-2-5-1-17l-9,14c-24,33-54,51-85,51h-3c-33-12-62-38-76-70-7-15-11-33-12-52h-5l-42,10c-6,38-11,74-16,105h0c5-6,15-9,29-9s43,4,52,11l25,25c7,6,6,14,5,31s-3,27-5,47-8,59-13,95l16-2c5-41,10-76,14-103,2-16,5-29,6-38s5-20,8-23,15-9,29-9,43,4,52,11,21,22,25,25,6,14,5,26-2,20-4,36-5,43-9,69a15,15,0,0,1,6,5l2,5,3-24c5-34,8-39,12-43s15-9,29-9h6v-5h-2c-11-3-18-9-21-16s-5-19-5-31,3-28,10-35,15-9,29-9,43,4,52,11l25,25c5,4,8,11,7,20v7c6-5,14-7,26-7s43,4,52,11,8,13,10,19a302,302,0,0,1,17-28c6-8,12-16,21-17h5c18,0,52,16,60,22a18,18,0,0,1,6,11,134,134,0,0,1,15-32c16-24,39-37,65-37a29,29,0,0,1,15,4c8,5,40,24,59,44,8,8,20,23,21,27,5,23-1,48-18,71a144,144,0,0,1-31,31l26,26a18,18,0,0,1,5,12c0,14-12,32-23,44s-28,28-48,28-58-28-73-45-14-22-18-42h-2l-10,2c-11,0-22-6-26-8s-17-11-20-21v-2c-17,37-33,81-44,112l-10,27c-2,7-4,13-10,16s-17,4-26,4l-24-2c-12-3-44-33-47-41s-2-5-1-18l-3,17c-3,20-7,37-9,49s-7,27-14,31-17,4-26,4l-24-2c-12-3-44-33-47-41s-3-7,0-42c1-13,2-28,4-44l-12,2c-7,47-14,91-20,124-3,19-6,35-8,45s-5,24-13,28-17,4-26,4l-24-2c-12-3-44-33-47-41s-3-7,3-64c2-21,5-46,8-73l-19,3c-8,51-15,98-21,133-3,20-6,36-9,47s-5,25-13,28-17,4-26,4l-24-2c-12-3-44-33-47-41s-2-7,4-68c3-25,6-55,10-88-4,0-8-1-11-3s-21-22-25-25-14-14-6-35c4-9,9-17,12-21h0c4-6,10-8,22-10l20-3c5-38,10-73,14-104-2,5-4,8-8,9s-17,4-26,4l-24-2a41,41,0,0,1-18-9c-6-5-27-23-29-32s-3-7,4-73c3-28,7-63,11-100-9-7-26-23-30-30s-7-28,2-60h0c3-10,14-13,23-15l20-4c4-29,7-56,11-80l-43,3c-13,0-19-2-24-5s-22-21-25-25-10-11-10-24,1-14,4-22S44,85,48,78h0c4-7,11-9,26-12l40-7L236,43c86-10,192-20,235-20M381,369l8-11a93,93,0,0,0,13-48h0c-11,14-19,33-21,53v6M582,632l4-28,2-13c-8,16-13,19-16,20l-13,3,19,14,3,4M471,9C427,9,320,19,234,29L111,45,71,52c-16,3-28,7-35,19h0c-4,7-12,21-17,36s-5,19-5,27,9,28,13,33h0s20,22,28,27,17,8,32,8h26l-7,52-10,2c-10,2-28,7-33,25h0c-8,31-11,55,0,72s18,20,27,28c-4,35-8,67-11,93-7,67-6,71-4,78h0c2,7,7,16,34,39a56,56,0,0,0,24,12,122,122,0,0,0,27,3h15l-8,64-10,2c-12,2-24,4-31,16h0c-3,4-9,13-13,23s-6,24-3,34a36,36,0,0,0,13,19l10,11,15,15,4,2c-3,29-6,55-9,77-7,65-6,67-3,75s15,20,24,28,25,20,33,22a122,122,0,0,0,27,3c14,0,25-2,32-5s16-19,20-38,5-27,9-48h0v5c3,8,15,20,24,28s25,20,33,22a122,122,0,0,0,27,3c14,0,25-2,32-5s17-20,20-38,5-26,8-46l5-30c5,7,13,14,20,20s25,20,33,22a122,122,0,0,0,27,3c14,0,25-2,32-5s17-20,22-41l5-24,6,5c14,13,25,20,33,22a122,122,0,0,0,27,3c14,0,25-2,32-5s16-18,18-24l10-26c9-24,21-58,34-89l10,7c7,4,20,10,33,10h2c5,14,11,26,18,34s23,21,40,31,34,18,44,18c24,0,45-18,59-33s27-32,27-54a32,32,0,0,0-9-22l-15-15a151,151,0,0,0,21-23c19-26,26-55,20-82-1-3-2-7-10-18l-14-17c-24-24-61-45-63-46a43,43,0,0,0-22-6,86,86,0,0,0-43,11c-13,7-24,18-34,32l-8,13c-14-8-43-21-62-21h-8c-14,2-23,13-30,23l-5,7h-1c-15-12-50-14-61-14H615a32,32,0,0,0-11-18l-10-10-15-15c-9-7-26-11-40-13,12,0,21-2,28-5s16-18,18-24l10-26c9-24,21-58,34-89l10,7c7,4,20,10,33,10a37,37,0,0,0,17-4c10-5,18-15,28-51,5-16,10-39,12-54s-4-29-10-35-21-22-27-27-46-25-69-25h-8c-14,2-23,13-30,23l-5,7h-1c-15-12-50-14-61-14s-16,1-22,3a38,38,0,0,0-18,11c-6,7-10,16-15,51v2c-22-21-46-44-56-52s-20-12-31-12c-27,0-55,14-76,39a148,148,0,0,0-16,23l-12-3H263l7-55,145-24c85-15,91-18,95-21s28-25,33-45,4-32-4-43-24-29-34-34-19-6-34-6ZM243,373l22-5a151,151,0,0,0,11,40c14,32,42,59,75,74a36,36,0,0,0-12,9l-2,3a28,28,0,0,0-9-12l-10-10-15-15c-15-12-50-14-61-14H232l11-70ZM406,479c18-8,36-21,51-39,9,11,22,23,30,30a54,54,0,0,0,21,10h6l-18,3a38,38,0,0,0-18,11c-5,6-9,13-11,23h-1l-10-10-16-15c-8-6-22-10-35-12Z"/><path class="fa896b9c-da93-44ec-8f4a-ed4e8dc4d907" d="M193,324c38-8,73-17,76-20s10-27,7-37-36-3-74,1c8-54,14-104,18-137,114-17,244-40,252-44s26-34,19-47S67,73,61,85s-28,50-14,62,47,1,103-6c-5,35-12,85-19,137-24,4-41,8-41,11s-11,39-4,49,17,3,38,0c-13,104-23,201-21,206s44,11,52,7S176,437,193,324Z"/><path class="fa896b9c-da93-44ec-8f4a-ed4e8dc4d907" d="M405,672c12-82,21-156,18-158s-53-13-61-4-15,83-26,168l-75,8c15-105,28-204,25-206s-53-13-61-4-19,111-33,219c-25,3-41,6-43,8s-20,30-10,37,21,1,47-2c-12,99-22,189-20,193s44,11,52,7,20-102,36-209l76-11c-10,89-19,174-17,179s44,11,52,7,20-100,34-197l30-6c10-5,18-21,13-28S428,671,405,672Z"/><path class="fa896b9c-da93-44ec-8f4a-ed4e8dc4d907" d="M484,611c-9,11-28,201-24,212s44,11,52,7,40-209,33-215S492,601,484,611Z"/><path class="fa896b9c-da93-44ec-8f4a-ed4e8dc4d907" d="M727,551c-10,1-41,64-68,123,7-49,13-96,10-99s-53-13-61-4-28,201-24,212,44,11,52,7,2-3,3-7c12-31,46-135,78-184,0,21,1,42,3,47s29,23,37,19,30-89,24-94S739,548,727,551Z"/><path class="fa896b9c-da93-44ec-8f4a-ed4e8dc4d907" d="M500,514c-9,11-7,41-3,52s36,12,44,8,26-50,20-56S508,505,500,514Z"/><path class="fa896b9c-da93-44ec-8f4a-ed4e8dc4d907" d="M477,420c4,11,44,11,52,7s2-3,3-7c12-31,46-135,78-184,0,21,1,42,3,47s29,23,37,19,30-89,24-94-42-21-54-19-41,64-68,123c7-49,13-96,10-99s-53-13-61-4S473,409,477,420Z"/><path class="fa896b9c-da93-44ec-8f4a-ed4e8dc4d907" d="M413,242H403c1-13-12-35-26-35-37,0-78,41-85,109s16,111,50,118C432,433,490,252,413,242ZM353,403c-7-12-13-34-11-66s23-66,41-79c1,2,3,4,6,5C434,273,425,384,353,403Z"/><path class="fa896b9c-da93-44ec-8f4a-ed4e8dc4d907" d="M901,685c-17,17-30,27-50,37-2-9-7-29-6-57h2c64-25,93-73,85-110-1-5-20-11-31-11-3-12-13-27-24-27-45,0-71,47-76,102-7,79,13,121,26,121h13c5,6,14,12,17,12,24,0,57-43,57-58C914,686,904,682,901,685Zm-6-125c4,34-22,72-48,85,1-5,2-10,3-15C859,589,881,563,895,559Z"/></svg>